<svg width="317" height="97" viewBox="0 0 317 97" fill="none" xmlns="http://www.w3.org/2000/svg">
<path d="M43.4945 28.5692L41.6278 64.5968L32.3564 66.588L30.7386 40.0806H20.2228L19.1027 65.3435C16.5516 65.3435 13.7515 65.468 10.5781 65.7791C7.40464 66.0902 3.92011 66.5258 0 67.0858L1.86672 56.321C4.66679 55.8855 7.2802 55.6988 9.70693 55.6988L8.71135 40.0806C5.60015 40.0806 3.48454 39.5828 2.36451 38.5872L4.60457 26.8269C7.40464 27.9469 10.4536 28.507 13.8759 28.507H43.4945V28.5692Z" fill="#2D3748"/>
<path d="M65.335 28.5673L63.7172 64.7817L54.6325 66.5861L53.2636 40.0788C50.8991 39.8299 49.2812 39.3321 48.2857 38.5854L50.4013 26.8251C53.2013 28.0073 56.3125 28.5673 59.7349 28.5673H65.335Z" fill="#2D3748"/>
<path d="M111.319 28.5675L108.27 50.0348C107.461 55.5105 105.967 59.3061 103.665 61.484C101.861 63.2262 99.4338 64.5329 96.3849 65.5285C93.647 66.3997 90.9714 66.773 88.2958 66.773L89.7269 56.1327C90.7225 56.1949 91.967 56.1327 93.3359 55.8838C94.9537 55.6349 96.0738 55.1994 96.6338 54.7016C97.1938 54.2038 97.5049 53.8304 97.6294 53.5815C97.9405 53.146 98.0649 52.5237 98.1271 51.777L98.6249 39.9545H75.851C73.4865 39.9545 71.682 39.4567 70.562 38.4611L72.802 26.7008C75.6021 27.8208 78.6511 28.3809 82.0734 28.3809H111.319V28.5675ZM84.1268 44.3724L83.0067 75.9199L74.3576 79.5289L72.4909 46.3636L84.1268 44.3724Z" fill="#2D3748"/>
<path d="M153.506 28.5676L151.391 39.2079C149.275 39.8301 147.408 40.2035 145.977 40.3279L144.857 64.9686L135.897 66.5864L134.279 40.7635H121.025C118.661 40.7635 116.856 40.2657 115.736 39.2701L117.914 26.8876C120.714 28.0076 123.763 28.5676 127.186 28.5676H153.506Z" fill="#2D3748"/>
<path d="M196.752 55.8839C196.752 64.0352 190.654 71.4399 176.84 71.4399C170.493 71.4399 163.773 69.8843 159.169 66.9598L163.773 57.2528C167.507 59.7418 172.049 61.0485 176.405 61.0485C180.76 61.0485 183.685 59.3062 183.685 56.195C183.685 53.3949 181.818 51.5904 174.849 51.5904H162.467L164.769 24.9586H193.827V34.9144H175.471L174.911 41.5724H177.96C191.463 41.5724 196.752 47.7948 196.752 55.8839Z" fill="#718096"/>
<path d="M291.193 17.1085L286.911 26.2706C293.135 31.5488 297.119 39.4163 297.119 48.18C297.119 64.0145 284.222 76.9112 268.388 76.9112C252.553 76.9112 239.656 64.0145 239.656 48.18C239.656 33.5904 250.561 21.5402 264.653 19.6978L264.155 9.83862C244.885 11.9798 229.847 28.362 229.847 48.18C229.847 69.4421 247.175 86.7704 268.437 86.7704C289.699 86.7704 307.028 69.4421 307.028 48.18C306.928 35.4327 300.704 24.1295 291.193 17.1085Z" fill="#718096"/>
<path d="M272.471 48.4292C271.624 50.2218 269.881 51.2675 268.039 51.2675C267.342 51.2675 266.645 51.1181 265.948 50.8193C263.458 49.674 262.412 46.7362 263.557 44.2963L274.811 20.196C273.915 19.9968 272.969 19.7976 272.022 19.698H271.973C271.724 19.698 271.524 19.6483 271.276 19.6483C271.027 19.6483 270.778 19.5985 270.529 19.5985C270.23 19.5985 269.981 19.5487 269.682 19.5487C269.284 19.5487 268.836 19.4989 268.437 19.4989H268.238L267.74 9.68945C267.84 9.68945 267.939 9.68945 268.039 9.68945C268.138 9.68945 268.238 9.68945 268.338 9.68945C269.732 9.68945 271.076 9.73925 272.471 9.88863C278.097 10.4862 283.425 12.3285 288.056 15.0672L272.471 48.4292Z" fill="#D25531"/>
</svg>
