<svg width="366" height="72" viewBox="0 0 366 72" fill="none" xmlns="http://www.w3.org/2000/svg">
<g clip-path="url(#clip0)">
<path d="M116.201 18.8861C118.179 20.0893 119.839 21.7495 121.041 23.7272C121.396 24.2409 121.598 24.8451 121.622 25.4691C121.623 25.818 121.534 26.1614 121.365 26.4664C121.195 26.7715 120.951 27.0281 120.654 27.2121C120.277 27.4445 119.84 27.5623 119.396 27.5511C118.92 27.5534 118.452 27.4281 118.04 27.1881C117.63 26.9556 117.294 26.6111 117.072 26.1951C116.286 24.8283 115.161 23.6868 113.805 22.8801C112.281 22.0698 110.569 21.6776 108.844 21.7432C106.765 21.6495 104.701 22.1445 102.89 23.1711C102.173 23.5909 101.582 24.1972 101.181 24.9259C100.781 25.6545 100.585 26.4781 100.615 27.3091C100.607 28.1201 100.786 28.9222 101.139 29.6526C101.492 30.383 102.008 31.0222 102.648 31.5201C104.004 32.6535 106.424 33.3957 109.908 33.7471C113.781 34.1344 116.781 35.3044 118.908 37.2571C119.967 38.2365 120.801 39.4338 121.353 40.7666C121.904 42.0993 122.16 43.5359 122.103 44.9772C122.16 47.1248 121.495 49.2293 120.215 50.9551C118.926 52.6403 117.19 53.9314 115.205 54.6821C113.071 55.5151 110.797 55.9342 108.505 55.9171C105.522 55.9539 102.579 55.2203 99.9624 53.7871C97.6101 52.594 95.739 50.6289 94.6624 48.2211C94.5205 47.9169 94.4383 47.5884 94.4204 47.2532C94.4198 47.0149 94.4665 46.7789 94.5579 46.5588C94.6492 46.3388 94.7833 46.1389 94.9524 45.9711C95.3483 45.5784 95.8551 45.3167 96.4044 45.2211C96.5626 45.1819 96.7256 45.1658 96.8884 45.1731C97.4154 45.1761 97.9296 45.3359 98.3654 45.6321C98.8267 45.9316 99.1889 46.361 99.4064 46.8661C100.157 48.2911 101.368 49.4193 102.843 50.0662C104.6 50.9479 106.541 51.3961 108.506 51.3732C110.677 51.4429 112.818 50.8612 114.654 49.7031C115.439 49.2289 116.084 48.5565 116.526 47.7535C116.968 46.9506 117.19 46.0454 117.171 45.1291C117.178 44.2354 116.991 43.3508 116.623 42.5362C116.256 41.7216 115.716 40.9964 115.041 40.4101C113.621 39.1035 111.459 38.3035 108.555 38.0101C104.555 37.6228 101.409 36.4528 99.1164 34.5001C98.0241 33.6192 97.147 32.5009 96.5515 31.2303C95.9559 29.9597 95.6577 28.5702 95.6794 27.1671C95.6351 25.2343 96.2589 23.3454 97.4454 21.8191C98.7148 20.2526 100.389 19.0639 102.286 18.3821C104.493 17.5635 106.833 17.1614 109.186 17.1962C111.635 17.115 114.059 17.699 116.201 18.8861V18.8861Z" fill="#718096"/>
<path d="M131.523 19.2C132.034 19.72 132.349 20.4009 132.415 21.1269C132.481 21.8529 132.294 22.5794 131.885 23.1828C131.476 23.7863 130.87 24.2295 130.171 24.4372C129.473 24.6449 128.723 24.6044 128.051 24.3223C127.379 24.0403 126.825 23.5342 126.484 22.8901C126.142 22.2459 126.034 21.5034 126.178 20.7888C126.322 20.0741 126.709 19.4314 127.273 18.9697C127.838 18.508 128.544 18.2558 129.273 18.2561C129.693 18.2514 130.109 18.3327 130.496 18.4951C130.883 18.6574 131.233 18.8973 131.523 19.2V19.2ZM127.506 29.632C127.851 29.2708 128.297 29.023 128.786 28.9216C129.275 28.8202 129.783 28.8701 130.243 29.0645C130.702 29.259 131.092 29.5888 131.36 30.0101C131.627 30.4314 131.761 30.9242 131.741 31.423V52.9631C131.752 53.2878 131.697 53.6112 131.581 53.9145C131.464 54.2178 131.288 54.4947 131.063 54.7291C130.717 55.0851 130.272 55.3289 129.785 55.429C129.299 55.5292 128.794 55.481 128.335 55.2907C127.876 55.1005 127.485 54.777 127.212 54.362C126.939 53.947 126.797 53.4597 126.804 52.9631V31.423C126.79 31.0921 126.845 30.7618 126.966 30.4533C127.087 30.1449 127.271 29.865 127.506 29.632V29.632Z" fill="#718096"/>
<path d="M137.274 18.305C137.613 17.9538 138.05 17.7131 138.528 17.6144C139.006 17.5158 139.502 17.5638 139.952 17.7523C140.402 17.9407 140.785 18.2607 141.05 18.6704C141.315 19.08 141.45 19.5603 141.437 20.048V46.476C141.397 47.5031 141.631 48.5224 142.115 49.429C142.27 49.7651 142.514 50.0517 142.822 50.2568C143.13 50.4618 143.489 50.5772 143.858 50.59H145.068C145.364 50.5803 145.658 50.636 145.93 50.7532C146.202 50.8704 146.444 51.0462 146.64 51.268C147.055 51.7515 147.272 52.3743 147.246 53.0111C147.249 53.355 147.167 53.6943 147.006 53.9985C146.846 54.3027 146.612 54.5623 146.326 54.754C145.63 55.2303 144.797 55.4679 143.954 55.431H143.854C142.517 55.4461 141.207 55.0492 140.102 54.294C138.955 53.4947 138.057 52.3871 137.513 51.0991C136.882 49.6408 136.569 48.0648 136.593 46.476V20.048C136.582 19.7264 136.637 19.4059 136.754 19.1061C136.871 18.8064 137.048 18.5337 137.274 18.305V18.305Z" fill="#718096"/>
<path d="M170.853 30.0892C171.078 30.4255 171.196 30.8217 171.192 31.2262C171.184 31.5475 171.102 31.8626 170.95 32.1463L160.689 53.7822C160.563 54.1219 160.363 54.4293 160.104 54.6824C159.845 54.9355 159.533 55.128 159.19 55.246C158.848 55.364 158.483 55.4046 158.123 55.3649C157.763 55.3251 157.416 55.2061 157.107 55.0162C156.686 54.6926 156.354 54.2682 156.139 53.7822L145.877 32.1463C145.746 31.8751 145.679 31.5766 145.684 31.2752C145.685 30.8461 145.815 30.4272 146.058 30.073C146.3 29.7188 146.643 29.4457 147.042 29.2892C147.354 29.1221 147.704 29.0383 148.058 29.0462C148.451 29.0484 148.836 29.1574 149.171 29.3612C149.528 29.5741 149.814 29.8871 149.994 30.2612L158.416 48.4122L166.741 30.2612C166.926 29.8821 167.221 29.5682 167.588 29.3612C167.949 29.1545 168.358 29.0458 168.773 29.0462C169.158 29.0388 169.54 29.1221 169.886 29.2892C170.278 29.4596 170.613 29.7369 170.853 30.0892Z" fill="#718096"/>
<path d="M197.078 43.3062C196.865 43.5083 196.614 43.6658 196.339 43.7697C196.065 43.8736 195.772 43.9217 195.479 43.9112H177.084C177.376 46.0585 178.475 48.0141 180.157 49.3802C181.448 50.3879 182.969 51.0574 184.583 51.3279C186.198 51.5984 187.854 51.4613 189.402 50.9291C190.331 50.6361 191.205 50.1947 191.992 49.6221C192.448 49.2656 193.014 49.0777 193.593 49.0901C194.12 49.0614 194.639 49.2344 195.044 49.5741C195.306 49.7639 195.52 50.0109 195.671 50.2962C195.822 50.5815 195.906 50.8975 195.916 51.2201C195.915 51.5071 195.844 51.7896 195.709 52.0428C195.574 52.2959 195.379 52.5121 195.141 52.6722C193.911 53.6135 192.527 54.3342 191.05 54.8022C189.13 55.4709 187.092 55.7361 185.064 55.5812C183.036 55.4264 181.062 54.8548 179.265 53.9021C177.214 52.8027 175.512 51.1511 174.351 49.1342C173.154 47.0266 172.543 44.6361 172.584 42.2122C172.545 39.7929 173.12 37.4032 174.255 35.2662C175.322 33.2639 176.932 31.6031 178.901 30.4742C180.958 29.31 183.289 28.7169 185.652 28.7562C187.909 28.6969 190.139 29.2664 192.09 30.4012C193.896 31.4973 195.342 33.0958 196.253 35.0011C197.254 37.1179 197.75 39.4374 197.704 41.7781C197.713 42.0625 197.662 42.3455 197.554 42.6088C197.446 42.8721 197.284 43.1097 197.078 43.3062ZM179.919 34.8592C178.418 36.2099 177.435 38.041 177.136 40.0381H193.26C193.068 38.0859 192.214 36.2582 190.839 34.8592C190.15 34.2065 189.336 33.6988 188.446 33.3663C187.557 33.0337 186.609 32.8831 185.661 32.9231C183.572 32.8288 181.524 33.5191 179.919 34.8582V34.8592Z" fill="#718096"/>
<path d="M217.991 29.437C218.393 29.5881 218.743 29.8506 219 30.1937C219.258 30.5369 219.412 30.9463 219.444 31.374C219.452 31.5369 219.435 31.6999 219.396 31.858C219.317 32.3079 219.077 32.7137 218.721 32.999C218.364 33.2843 217.916 33.4295 217.459 33.4071C217.215 33.3963 216.972 33.3628 216.733 33.3071C215.696 33.1074 214.644 32.9939 213.587 32.968C211.591 32.8719 209.618 33.4341 207.972 34.5681C207.291 35.0562 206.74 35.7045 206.369 36.4558C205.997 37.2071 205.817 38.0384 205.842 38.8761V53.0101C205.886 53.6632 205.671 54.3072 205.242 54.8021C204.999 55.0259 204.713 55.1971 204.4 55.3053C204.088 55.4135 203.757 55.4563 203.428 55.431C202.774 55.4756 202.13 55.2599 201.636 54.8311C201.412 54.5879 201.24 54.3013 201.132 53.989C201.024 53.6768 200.981 53.3456 201.006 53.0161V31.3801C200.97 31.0535 201.008 30.7229 201.117 30.4128C201.226 30.1028 201.403 29.8211 201.635 29.5888C201.868 29.3564 202.149 29.1793 202.459 29.0704C202.769 28.9616 203.1 28.9239 203.427 28.9601C203.755 28.9131 204.09 28.9433 204.405 29.0483C204.72 29.1534 205.007 29.3303 205.241 29.5651C205.476 29.7999 205.653 30.0861 205.758 30.4011C205.863 30.7162 205.893 31.0514 205.846 31.3801V32.2991C206.83 31.1587 208.053 30.2497 209.428 29.6371C210.858 28.9901 212.41 28.6599 213.979 28.6691C215.358 28.6006 216.734 28.8639 217.991 29.437V29.437Z" fill="#718096"/>
<path d="M242.837 18.8862C244.814 20.0894 246.474 21.7496 247.677 23.7273C248.033 24.241 248.234 24.8452 248.259 25.4692C248.259 25.8182 248.17 26.1614 248.001 26.4664C247.831 26.7715 247.587 27.0282 247.291 27.2123C246.913 27.4447 246.476 27.5624 246.032 27.5513C245.556 27.5536 245.089 27.4282 244.677 27.1882C244.267 26.9559 243.931 26.6114 243.708 26.1952C242.922 24.8284 241.797 23.687 240.442 22.8803C238.917 22.0698 237.205 21.6776 235.479 21.7433C233.4 21.6497 231.337 22.1447 229.526 23.1713C228.809 23.591 228.218 24.1974 227.818 24.926C227.417 25.6547 227.221 26.4783 227.251 27.3092C227.243 28.1203 227.422 28.9224 227.775 29.6528C228.128 30.3833 228.644 31.0223 229.285 31.5203C230.64 32.6536 233.06 33.3959 236.545 33.7472C240.417 34.1345 243.417 35.3045 245.545 37.2572C246.605 38.236 247.439 39.4332 247.992 40.766C248.544 42.0988 248.801 43.5356 248.745 44.9773C248.801 47.1249 248.136 49.2294 246.857 50.9552C245.567 52.6404 243.831 53.9314 241.847 54.6823C239.712 55.5152 237.438 55.9343 235.146 55.9172C232.163 55.9542 229.22 55.2205 226.604 53.7872C224.251 52.5942 222.38 50.6291 221.303 48.2212C221.162 47.917 221.079 47.5885 221.062 47.2533C221.061 47.015 221.108 46.7789 221.199 46.5588C221.291 46.3388 221.425 46.139 221.594 45.9712C221.99 45.5785 222.497 45.3168 223.047 45.2212C223.205 45.1822 223.368 45.166 223.531 45.1732C224.057 45.1764 224.571 45.3361 225.006 45.6322C225.467 45.9317 225.829 46.3611 226.047 46.8662C226.797 48.2912 228.009 49.4194 229.484 50.0663C231.24 50.9481 233.182 51.3963 235.146 51.3733C237.316 51.443 239.457 50.8613 241.293 49.7033C242.078 49.2291 242.723 48.5568 243.165 47.7538C243.607 46.9508 243.83 46.0456 243.811 45.1293C243.817 44.2356 243.63 43.3511 243.263 42.5365C242.895 41.7219 242.356 40.9966 241.682 40.4103C240.261 39.1036 238.099 38.3036 235.196 38.0103C231.196 37.6229 228.049 36.4529 225.756 34.5002C224.664 33.6194 223.787 32.5012 223.191 31.2306C222.596 29.96 222.298 28.5703 222.319 27.1672C222.275 25.2345 222.899 23.3455 224.085 21.8192C225.354 20.2528 227.028 19.0641 228.926 18.3822C231.132 17.5637 233.472 17.1616 235.826 17.1963C238.272 17.1158 240.695 17.6998 242.837 18.8862V18.8862Z" fill="#880933"/>
<path d="M271.942 30.5272C273.958 31.6722 275.623 33.3456 276.758 35.3671C277.931 37.4574 278.532 39.8197 278.501 42.2161C278.534 44.5979 277.977 46.9508 276.879 49.0651C275.862 51.0464 274.322 52.712 272.426 53.8821C269.936 55.4071 266.977 55.9777 264.098 55.4882C261.218 54.9988 258.614 53.4825 256.767 51.2201V64.2891C256.758 64.7755 256.608 65.2488 256.336 65.6517C256.063 66.0546 255.679 66.3698 255.231 66.5593C254.783 66.7487 254.29 66.8043 253.811 66.7193C253.332 66.6343 252.888 66.4123 252.532 66.0801C252.297 65.847 252.113 65.5672 251.993 65.2587C251.872 64.9503 251.818 64.62 251.832 64.2891V42.2172C251.802 39.8178 252.411 37.4536 253.598 35.3682C254.754 33.3335 256.435 31.6468 258.466 30.4844C260.497 29.3221 262.803 28.7269 265.142 28.7612C267.526 28.7349 269.873 29.3445 271.942 30.5272V30.5272ZM269.521 50.0822C270.825 49.2966 271.895 48.177 272.621 46.8392C273.391 45.4213 273.782 43.8292 273.758 42.2161C273.78 40.5957 273.389 38.9964 272.621 37.5691C271.9 36.2216 270.829 35.0931 269.521 34.3022C268.539 33.7045 267.444 33.3142 266.305 33.1553C265.166 32.9965 264.007 33.0724 262.898 33.3785C261.79 33.6845 260.756 34.2142 259.86 34.9349C258.963 35.6556 258.224 36.552 257.687 37.5691C256.935 39.0011 256.552 40.5985 256.574 42.2161C256.55 43.8263 256.933 45.4167 257.687 46.8392C258.239 47.8419 258.986 48.7236 259.885 49.4322C260.783 50.1408 261.815 50.6617 262.918 50.9642C264.022 51.2666 265.175 51.3444 266.309 51.1929C267.444 51.0414 268.536 50.6637 269.521 50.0822V50.0822Z" fill="#880933"/>
<path d="M331.387 30.4791C333.378 31.5993 335.02 33.2494 336.13 35.246C337.255 37.3878 337.845 39.77 337.849 42.1891C337.853 44.6083 337.272 46.9924 336.154 49.138C335.058 51.1374 333.423 52.7893 331.435 53.9061C329.307 55.0343 326.935 55.6242 324.526 55.6242C322.117 55.6242 319.745 55.0343 317.616 53.9061C315.617 52.7953 313.973 51.1424 312.872 49.138C311.759 46.9919 311.178 44.6098 311.178 42.1921C311.178 39.7744 311.759 37.3921 312.872 35.246C313.973 33.2421 315.618 31.5897 317.616 30.4791C319.734 29.3121 322.121 28.7198 324.538 28.761C326.933 28.7219 329.295 29.3145 331.387 30.4791ZM320.109 34.279C318.803 35.0531 317.739 36.1762 317.036 37.522C316.278 38.9711 315.895 40.5869 315.922 42.222C315.894 43.848 316.277 45.4547 317.036 46.893C317.744 48.2288 318.808 49.3428 320.109 50.112C321.461 50.8736 322.987 51.2737 324.538 51.2737C326.09 51.2737 327.615 50.8736 328.967 50.112C330.266 49.3464 331.323 48.2309 332.017 46.893C332.761 45.4498 333.135 43.845 333.106 42.222C333.133 40.5898 332.76 38.976 332.017 37.522C331.328 36.1742 330.27 35.0496 328.967 34.279C327.615 33.5175 326.09 33.1175 324.538 33.1175C322.987 33.1175 321.461 33.5175 320.109 34.279V34.279Z" fill="#880933"/>
<path d="M360.251 30.1641C362.027 31.1333 363.476 32.607 364.414 34.3991C365.464 36.4727 365.98 38.7756 365.914 41.099V53.006C365.921 53.3343 365.862 53.6608 365.741 53.9661C365.62 54.2714 365.439 54.5494 365.209 54.784C364.979 55.0185 364.705 55.2048 364.402 55.332C364.099 55.4593 363.774 55.5247 363.446 55.5247C363.117 55.5247 362.792 55.4593 362.49 55.332C362.187 55.2048 361.912 55.0185 361.683 54.784C361.453 54.5494 361.272 54.2714 361.151 53.9661C361.03 53.6608 360.971 53.3343 360.977 53.006V41.103C361.099 40.0518 360.985 38.9869 360.644 37.985C360.304 36.9831 359.745 36.0694 359.008 35.3098C358.271 34.5503 357.375 33.9638 356.384 33.5929C355.393 33.222 354.332 33.0759 353.277 33.1651C351.997 33.1491 350.73 33.4308 349.577 33.9881C348.524 34.4853 347.622 35.2535 346.963 36.214C346.336 37.1427 346.007 38.2405 346.019 39.3611V53.01C346.03 53.3349 345.975 53.6585 345.859 53.9619C345.742 54.2653 345.566 54.5424 345.341 54.777C344.995 55.133 344.55 55.3769 344.063 55.4771C343.577 55.5772 343.071 55.529 342.612 55.3386C342.153 55.1483 341.762 54.8245 341.49 54.4093C341.217 53.9942 341.075 53.5067 341.082 53.01V31.423C341.068 31.0921 341.122 30.762 341.243 30.4535C341.363 30.1451 341.547 29.8653 341.782 29.6321C342.127 29.2708 342.573 29.023 343.062 28.9216C343.551 28.8203 344.059 28.87 344.519 29.0645C344.978 29.2589 345.368 29.5887 345.636 30.01C345.903 30.4313 346.037 30.9242 346.017 31.423V31.9551C347.066 30.9108 348.318 30.0937 349.696 29.5551C351.145 28.985 352.69 28.6975 354.246 28.708C356.339 28.6756 358.406 29.1767 360.251 30.1641V30.1641Z" fill="#880933"/>
<path d="M306.457 35.2442C305.346 33.249 303.704 31.6002 301.713 30.4802C299.621 29.3148 297.257 28.7215 294.862 28.7602C292.444 28.7203 290.058 29.3132 287.939 30.4802C285.943 31.5918 284.299 33.2427 283.196 35.2442C282.083 37.3904 281.501 39.7727 281.501 42.1906C281.501 44.6085 282.083 46.991 283.196 49.1371C284.297 51.1412 285.941 52.7942 287.939 53.9062C289.528 54.7906 291.28 55.3411 293.088 55.5241C292.957 54.4141 292.493 53.37 291.756 52.5291C291.581 52.3531 291.369 52.2166 291.136 52.1291C288.536 51.1091 287.308 48.8781 286.921 45.9451C286.826 45.1625 286.778 44.3746 286.78 43.5861C286.85 40.3765 287.912 37.2673 289.821 34.6861C291.209 32.8631 292.963 31.6331 294.837 31.6331C296.681 31.6331 298.409 32.8261 299.793 34.6011C301.74 37.1999 302.824 40.343 302.893 43.5892C302.898 44.4663 302.82 45.3419 302.659 46.2042C302.51 47.2521 302.151 48.259 301.602 49.1641C301.053 50.0692 300.327 50.8537 299.466 51.4701C298.433 52.3571 297.439 52.6702 296.871 55.4952C298.589 55.2934 300.249 54.7537 301.756 53.9072C303.745 52.7917 305.38 51.139 306.474 49.1381C307.591 46.9922 308.172 44.6081 308.169 42.189C308.165 39.77 307.577 37.3877 306.453 35.2452L306.457 35.2442Z" fill="#880933"/>
<path d="M90.6392 4.08609C82.3182 6.11009 79.3542 14.1912 76.9182 20.9532C73.8632 29.4362 72.4592 38.3991 69.4702 46.9001C68.8458 48.6952 68.1275 50.4563 67.3182 52.1761C65.2059 56.7148 62.0933 60.7164 58.2139 63.8805C54.3345 67.0447 49.7889 69.2893 44.9182 70.4461C41.9236 71.1889 38.8495 71.5633 35.7642 71.5611C29.2325 71.5849 22.8102 69.8844 17.1462 66.6311C13.1841 64.5218 9.70363 61.612 6.92557 58.0865C4.14751 54.5609 2.13254 50.4964 1.00839 46.1509C-0.115748 41.8054 -0.324498 37.2736 0.395418 32.8432C1.11533 28.4127 2.74819 24.1802 5.1904 20.4142C7.63261 16.6482 10.8308 13.4308 14.5822 10.9662C18.3337 8.50163 22.5564 6.84361 26.9825 6.09732C31.4086 5.35104 35.9415 5.53277 40.2936 6.63101C44.6458 7.72926 48.7221 9.72006 52.2642 12.4771C46.7852 21.8561 49.7092 29.2771 41.1642 31.9771C32.6192 34.6771 10.5762 38.7241 7.42722 40.5241C7.42722 47.2721 15.0742 58.5171 30.3682 58.5171C38.5192 58.5171 44.1682 53.2341 47.4932 46.1951C51.4402 37.8441 52.1662 28.5581 55.2282 19.9351C57.6712 13.0561 60.5462 6.78414 66.8032 2.73514C74.3542 -2.14986 85.0162 0.262091 90.6392 4.08609Z" fill="#880933"/>
<path d="M13.6686 42.1245C23.1419 39.389 32.7508 37.1474 42.4566 35.4087C38.7475 39.5925 20.014 44.048 13.6686 42.1245Z" fill="#718096"/>
<path d="M6.41211 30.4582C7.10511 23.5262 12.9971 18.3271 16.4631 18.6741C19.9291 19.0211 20.6221 22.1401 18.5431 24.2201C16.4641 26.3001 14.0371 25.6062 11.9581 26.3002C9.70206 27.0379 7.75261 28.4994 6.41211 30.4582V30.4582Z" fill="#718096"/>
<path d="M15.3822 19.2569C16.3632 18.7669 17.4622 18.91 17.8092 19.604C18.1562 20.298 17.0632 20.6619 16.0762 20.9909C15.0362 21.3369 14.2162 21.4289 13.9962 20.9909C13.6492 20.2969 14.6892 19.6029 15.3822 19.2569Z" fill="white"/>
<path d="M12.5208 21.6672C12.7469 21.5583 12.9922 21.6066 13.0721 21.7724C13.1519 21.9382 13.0373 22.161 12.8111 22.27C12.585 22.3789 12.3415 22.3297 12.2612 22.163C12.1809 21.9963 12.2964 21.7753 12.5208 21.6672Z" fill="white"/>
</g>
<defs>
<clipPath id="clip0">
<rect width="365.913" height="71.559" fill="white"/>
</clipPath>
</defs>
</svg>
