<svg width="221" height="319" viewBox="0 0 221 319" fill="none" xmlns="http://www.w3.org/2000/svg">
<g clip-path="url(#clip0)">
<path d="M105.729 28.8854V123.02C105.618 123.13 105.397 123.351 105.286 123.571L97.9634 133.161C97.8524 133.271 97.6305 133.382 97.6305 133.492L88.5331 123.902C85.5377 121.587 81.4327 121.587 78.2154 124.012L68.8961 132.059C65.124 128.642 61.0191 125.445 56.2485 122.8C54.3625 121.697 52.1436 122.249 51.0341 124.122C49.9247 125.996 50.5904 128.311 52.3655 129.413C103.289 159.175 91.9724 245.594 91.8615 246.365C91.8615 246.586 91.7505 246.806 91.7505 246.916H66.4553V229.721C66.4553 215.391 59.7987 201.503 47.9277 193.566C18.9714 173.725 0 140.767 0 103.289C0 57.5447 28.4016 18.3035 68.6742 2.09996C87.6456 -5.50578 105.729 8.60341 105.729 28.8854Z" fill="#FFAD1F"/>
<path d="M103.732 138.006L105.618 135.581V246.801H99.2946C100.182 239.526 107.393 174.822 73.9994 137.455L83.0968 129.628L92.3051 139.328C95.8553 141.864 100.626 141.533 103.732 138.006Z" fill="url(#paint0_linear)"/>
<path d="M213.678 128.306C220.334 124.227 222.331 112.764 220.223 104.607C218.115 95.7885 212.679 89.8362 204.913 87.4111C209.795 83.002 212.79 76.9395 212.79 70.2156C212.79 57.2086 201.363 46.6268 186.94 45.8552C188.271 42.5483 189.159 39.021 189.159 35.2733C189.159 22.8175 176.844 6.39351 158.538 1.76394C146.002 -1.43268 134.686 0.220743 126.698 6.39351C119.486 11.9049 115.603 20.5027 115.603 31.0846V247.793H157.096V227.291C157.096 219.905 157.984 215.496 160.646 209.764C161.756 206.568 162.422 202.379 162.2 198.19C163.531 198.521 164.751 198.741 166.083 198.741H166.526C170.631 198.631 174.847 196.647 177.954 193.23C181.504 189.482 184.832 182.428 183.834 175.924C183.723 175.594 183.612 175.263 183.501 175.042H184.499C192.487 175.042 199.477 172.728 203.915 168.539C207.576 165.012 208.796 160.933 209.018 158.288C209.905 157.737 210.904 157.186 211.681 156.524C215.675 152.887 217.783 147.155 217.672 140.762C217.45 136.242 216.007 131.943 213.678 128.306C213.567 128.306 213.678 128.306 213.678 128.306ZM209.684 121.802C207.576 123.015 204.358 120.7 202.583 119.157C201.03 117.834 198.589 117.944 197.258 119.487C195.927 121.141 196.038 123.456 197.591 124.889C200.032 127.093 202.25 128.306 204.247 128.967C207.687 131.833 209.795 136.242 209.905 140.982C210.016 145.06 208.685 148.698 206.355 150.792C203.471 153.438 196.148 152.776 190.268 147.485C188.715 146.163 187.162 144.179 185.609 141.974C181.504 136.352 179.507 127.424 182.724 123.676C184.056 122.133 183.834 119.598 182.28 118.275C180.616 116.952 178.176 117.173 176.955 118.716C174.514 121.582 173.516 125.219 173.516 128.967C167.303 124.338 159.093 122.133 147.444 126.763C145.447 127.644 144.56 129.849 145.336 131.723C146.113 133.707 148.443 134.589 150.329 133.817C165.195 127.865 171.63 136.463 178.619 145.391C178.952 145.722 179.174 146.163 179.507 146.493C179.618 146.604 179.618 146.714 179.729 146.824C179.729 146.934 179.84 146.934 179.84 146.934C181.615 149.139 183.39 151.343 185.276 153.107C189.825 157.296 195.483 159.5 200.697 159.831C200.253 160.933 199.699 161.925 198.589 163.028C194.928 166.445 187.939 168.098 180.394 167.106C173.294 166.224 164.529 159.17 163.531 153.548C163.198 151.454 161.201 150.131 159.093 150.462C156.985 150.792 155.543 152.776 155.987 154.871C156.209 155.973 156.542 156.965 156.985 157.957C150.994 157.406 144.338 158.178 139.234 161.484C137.348 162.587 136.794 165.012 138.014 166.775C139.123 168.539 141.564 169.09 143.339 167.878C150.772 163.138 162.976 166.334 164.529 167.657C164.751 167.767 164.973 167.988 165.084 168.098C165.417 168.429 165.861 168.759 166.305 168.98C168.413 170.633 170.742 171.846 173.183 172.838C173.294 172.838 173.294 172.948 173.294 172.948C174.958 173.83 175.957 175.263 176.29 177.027C176.844 180.885 174.736 185.514 172.406 187.939C171.519 188.821 169.3 190.915 166.305 191.026C164.197 191.136 162.089 190.144 159.87 188.16C159.87 188.16 159.759 188.16 159.759 188.049C159.315 187.278 158.982 186.506 158.538 185.845C156.209 182.428 152.88 180.664 148.886 180.554C146.778 180.664 145.003 182.207 145.003 184.302C145.003 186.396 146.668 188.16 148.886 188.16C149.774 188.16 150.994 188.38 152.215 190.144C154.877 193.891 155.321 201.718 153.546 206.788C150.107 214.063 149.441 220.126 149.441 227.18V239.967H123.369V86.5293C127.696 95.3475 134.464 103.725 145.669 107.473C146.113 107.583 146.557 107.693 146.889 107.693C148.554 107.693 149.996 106.701 150.551 105.048C151.105 103.064 150.107 100.859 148.11 100.198C131.024 94.4657 126.476 74.6247 123.813 62.8303L123.48 61.5075C123.48 61.3973 123.369 61.2871 123.369 61.1769V31.0846C123.369 22.9277 126.254 16.5345 131.468 12.3458C137.57 7.71625 146.778 6.50374 156.763 9.03899C172.739 13.1174 181.615 27.0062 181.615 35.163C181.615 46.2961 172.074 55.445 160.314 55.445C159.648 55.445 158.982 55.445 158.317 55.3348C156.209 55.1143 154.323 56.6575 154.212 58.8621C153.99 60.9564 155.543 62.72 157.651 62.9405C158.539 63.0507 159.426 63.0507 160.314 63.0507C168.967 63.0507 176.622 59.4132 181.948 53.5711C183.057 53.4609 184.167 53.2404 185.276 53.2404C196.37 53.2404 205.246 60.8462 205.246 70.1053C205.246 79.4747 196.37 87.0804 185.276 87.0804C179.063 87.0804 173.294 84.6554 169.411 80.4668C168.08 78.8133 165.528 78.7031 163.975 80.1361C162.422 81.4588 162.311 83.9941 163.753 85.427C167.858 90.0566 173.516 92.9225 179.729 94.135C177.954 97.1112 176.955 100.749 176.955 105.158C176.955 107.252 178.619 109.016 180.838 109.016C183.057 109.016 184.721 107.362 184.721 105.158C184.721 97.2214 188.493 93.6941 196.814 93.6941C205.246 93.6941 210.904 97.993 212.901 106.26C214.232 112.323 212.679 119.928 209.684 121.802Z" fill="#EEF7FF"/>
<path d="M161.312 266.862V270.72H59.6878V266.862C59.6878 261.571 64.3474 257.272 70.1165 257.272H150.773C156.542 257.272 161.312 261.571 161.312 266.862Z" fill="#EEF7FF"/>
<path d="M59.6878 278.767H161.201V282.625C161.201 287.916 156.542 292.215 150.773 292.215H70.1165C64.3474 292.215 59.6878 287.916 59.6878 282.625V278.767Z" fill="#EEF7FF"/>
<path d="M126.476 319H92.638C82.3203 319 73.8885 310.623 73.8885 300.372H145.225C145.225 310.623 136.905 319 126.476 319Z" fill="#EEF7FF"/>
</g>
<defs>
<linearGradient id="paint0_linear" x1="36.8333" y1="65.5092" x2="96.8427" y2="190.586" gradientUnits="userSpaceOnUse">
<stop stop-color="#FFD300"/>
<stop offset="1" stop-color="#FFA400"/>
</linearGradient>
<clipPath id="clip0">
<rect width="221" height="319" fill="white"/>
</clipPath>
</defs>
</svg>
