<svg width="455" xmlns="http://www.w3.org/2000/svg" viewBox="0 0 455 161" fill="none">
      <g>
        <path
          d="M159.242 32.7547V124.301H152.182C149.207 124.306 146.335 123.213 144.112 121.229C141.889 119.245 140.47 116.509 140.126 113.543C134.159 122.892 124.601 126.056 115.202 126.056C92.4845 126.056 75.3979 110.849 75.3979 85.1836C75.3979 58.2602 92.1668 44.3199 114.734 44.3199C122.88 44.3199 135.572 48.751 140.126 56.8334V13.5857C142.633 13.5845 145.116 14.0796 147.432 15.0425C149.749 16.0054 151.854 17.4173 153.627 19.1976C155.4 20.9778 156.806 23.0914 157.765 25.4177C158.724 27.7439 159.217 30.2371 159.216 32.7547H159.242ZM94.4968 85.1747C94.4968 98.8048 104.205 108.146 116.437 108.146C128.502 108.146 138.846 99.2834 138.846 85.1747C138.846 71.5535 128.502 62.3723 116.437 62.3723C104.214 62.3723 94.4968 71.0838 94.4968 85.1747Z"
          fill="#E3163B"
        />
        <path
          d="M230.871 46.2166C233.279 46.2154 235.664 46.6907 237.889 47.6152C240.114 48.5397 242.136 49.8953 243.839 51.6047C245.542 53.314 246.893 55.3436 247.815 57.5774C248.737 59.8112 249.211 62.2054 249.211 64.6234V124.302H242.565C239.456 124.312 236.456 123.144 234.166 121.032C231.875 118.919 230.463 116.017 230.209 112.905C225.797 122.095 213.75 126.526 205.136 126.686C182.251 126.845 165.323 112.586 165.323 85.1838C165.323 58.2603 183.036 44.1605 205.603 44.3201C215.947 44.3201 225.814 49.2297 230.209 56.993L230.871 46.2166ZM184.492 85.2104C184.492 100.108 194.677 108.979 207.369 108.979C237.464 108.979 237.464 61.6191 207.369 61.6191C194.677 61.6191 184.492 70.3218 184.492 85.2104Z"
          fill="#E3163B"
        />
        <g style="mix-blend-mode: multiply">
          <path
            d="M79.9167 35.83H22.0466V54.8661H42.8664C65.6808 54.8661 86.0417 64.3043 85.8917 89.6857C85.8917 114.287 65.5308 126.021 43.9431 126.021C20.3609 126.021 0.150037 117.504 0 92.1317H11.3763C13.4286 92.1067 15.4487 92.6448 17.2187 93.6881C18.9886 94.7314 20.4413 96.2402 21.42 98.0517C25.0915 105.141 35.4616 107.144 43.6342 107.144C53.4308 107.144 65.8309 102.501 65.8309 89.6592C65.9897 77.4293 53.8897 73.8755 42.8841 73.8755H2.28585V16.6433H68.3991C71.4461 16.655 74.3644 17.8787 76.5148 20.0463C78.6652 22.2139 79.8726 25.1489 79.8726 28.2085L79.9167 35.83Z"
            fill="#97C01E"
          />
        </g>
        <path
          d="M189.311 15.4202C190.147 15.38 190.979 15.5538 191.729 15.9254C192.375 16.3298 192.847 16.962 193.053 17.6978C193.386 18.8092 193.535 19.9677 193.495 21.1275V33.0738C193.514 33.4371 193.39 33.7934 193.15 34.0663C193.022 34.1895 192.869 34.2845 192.702 34.3455C192.535 34.4065 192.357 34.4322 192.18 34.4208C192.003 34.4331 191.827 34.4079 191.661 34.3468C191.495 34.2857 191.344 34.1901 191.218 34.0663C190.978 33.7934 190.854 33.4371 190.873 33.0738V20.8173C190.9 20.1091 190.82 19.401 190.635 18.7169C190.533 18.3062 190.277 17.9507 189.92 17.7244C189.495 17.526 189.029 17.4347 188.561 17.4585H185.684V33.1624C185.704 33.3072 185.691 33.4547 185.645 33.5935C185.599 33.7323 185.522 33.8586 185.419 33.9624C185.317 34.0662 185.192 34.1448 185.054 34.1921C184.916 34.2393 184.769 34.2539 184.625 34.2347H181.756C181.616 34.2452 181.476 34.2262 181.344 34.1789C181.211 34.1316 181.09 34.057 180.989 33.96C180.897 33.8621 180.826 33.7463 180.78 33.6197C180.735 33.4932 180.716 33.3587 180.724 33.2244C180.698 33.083 180.708 32.9375 180.751 32.8005C180.794 32.6635 180.869 32.539 180.971 32.4378C181.073 32.3367 181.197 32.2618 181.334 32.2198C181.471 32.1777 181.616 32.1697 181.756 32.1964H183.063V17.4585H182.568C182.429 17.4757 182.287 17.4607 182.154 17.4147C182.021 17.3687 181.9 17.2928 181.8 17.1929C181.701 17.0929 181.625 16.9716 181.579 16.8379C181.534 16.7043 181.519 16.5619 181.536 16.4216C181.529 16.2875 181.548 16.1532 181.594 16.0268C181.639 15.9005 181.71 15.7846 181.801 15.6861C181.904 15.5924 182.026 15.5206 182.158 15.4749C182.29 15.4292 182.429 15.4106 182.568 15.4202H189.311ZM198.702 34.4208C198.524 34.4314 198.347 34.4036 198.181 34.3394C198.015 34.2752 197.864 34.176 197.74 34.0486C197.502 33.771 197.379 33.4128 197.396 33.0472V17.4585H196.425C196.287 17.4684 196.148 17.45 196.018 17.4042C195.887 17.3585 195.768 17.2865 195.666 17.1926C195.572 17.0885 195.501 16.9666 195.455 16.8341C195.41 16.7017 195.391 16.5614 195.401 16.4216C195.394 16.2875 195.413 16.1532 195.459 16.0268C195.504 15.9005 195.575 15.7846 195.666 15.6861C195.768 15.5922 195.887 15.5202 196.018 15.4745C196.148 15.4287 196.287 15.4103 196.425 15.4202H198.958C199.102 15.3994 199.248 15.4126 199.386 15.4587C199.524 15.5048 199.65 15.5826 199.752 15.6858C199.855 15.789 199.933 15.9149 199.978 16.0534C200.024 16.1919 200.037 16.3392 200.017 16.4837V33.0117C200.032 33.3804 199.902 33.7402 199.655 34.0131C199.531 34.1385 199.382 34.2364 199.218 34.3005C199.053 34.3646 198.878 34.3935 198.702 34.3853V34.4208ZM209.699 33.765C209.575 33.9478 209.408 34.097 209.213 34.1992C209.026 34.3015 208.817 34.3562 208.604 34.3588C208.375 34.3492 208.151 34.295 207.942 34.1992C207.786 34.1122 207.657 33.9832 207.57 33.8266C207.483 33.6701 207.44 33.4923 207.448 33.313C207.463 33.0027 207.547 32.6997 207.695 32.4268C208.56 31.2203 209.192 29.8615 209.557 28.4211C209.89 26.7587 210.041 25.0649 210.008 23.3696V17.5383H203.671C203.531 17.5555 203.389 17.5405 203.256 17.4945C203.123 17.4484 203.002 17.3726 202.903 17.2726C202.803 17.1727 202.728 17.0513 202.682 16.9177C202.636 16.784 202.621 16.6417 202.638 16.5014C202.631 16.3672 202.65 16.233 202.696 16.1066C202.741 15.9802 202.812 15.8643 202.903 15.7658C203.007 15.6721 203.128 15.6003 203.26 15.5546C203.392 15.509 203.531 15.4904 203.671 15.5H211.614C211.758 15.4792 211.904 15.4924 212.042 15.5385C212.18 15.5846 212.306 15.6623 212.408 15.7655C212.511 15.8688 212.589 15.9946 212.634 16.1331C212.68 16.2716 212.694 16.4189 212.673 16.5634V23.3696C212.714 25.2991 212.509 27.2261 212.064 29.1035C211.576 30.7984 210.789 32.3921 209.743 33.8093L209.699 33.765ZM204.236 37.9657C204.057 37.9764 203.879 37.9496 203.712 37.8871C203.545 37.8245 203.392 37.7275 203.265 37.6023C203.146 37.4693 203.054 37.3139 202.995 37.145C202.936 36.9762 202.91 36.7973 202.92 36.6186V23.1303C202.899 22.7587 203.023 22.3932 203.265 22.1112C203.535 21.8824 203.877 21.757 204.231 21.757C204.585 21.757 204.927 21.8824 205.198 22.1112C205.44 22.3932 205.563 22.7587 205.542 23.1303V36.6452C205.552 36.8239 205.527 37.0028 205.468 37.1716C205.408 37.3404 205.317 37.4959 205.198 37.6289C205.071 37.7534 204.92 37.85 204.755 37.9126C204.589 37.9752 204.412 38.0023 204.236 37.9923V37.9657ZM223.246 15.3936C223.384 15.3847 223.522 15.4037 223.652 15.4493C223.783 15.495 223.903 15.5664 224.005 15.6595C224.096 15.758 224.166 15.8739 224.212 16.0002C224.257 16.1266 224.277 16.2609 224.27 16.395C224.296 16.5362 224.288 16.6818 224.247 16.8192C224.205 16.9566 224.13 17.0817 224.029 17.1837C223.929 17.2858 223.805 17.3617 223.668 17.4049C223.532 17.4481 223.387 17.4574 223.246 17.4319H222.461V32.9851C222.477 33.3508 222.354 33.709 222.116 33.9866C221.992 34.114 221.842 34.2132 221.676 34.2774C221.51 34.3416 221.332 34.3693 221.154 34.3588C220.978 34.3669 220.803 34.3381 220.639 34.2739C220.474 34.2098 220.325 34.112 220.201 33.9866C219.954 33.7137 219.824 33.3538 219.839 32.9851V17.4585H215.003C214.863 17.4757 214.721 17.4607 214.588 17.4147C214.455 17.3687 214.334 17.2928 214.235 17.1929C214.135 17.0929 214.06 16.9716 214.014 16.8379C213.968 16.7043 213.953 16.5619 213.97 16.4216C213.963 16.2875 213.983 16.1532 214.028 16.0268C214.074 15.9005 214.144 15.7846 214.235 15.6861C214.339 15.5924 214.46 15.5206 214.592 15.4749C214.724 15.4292 214.864 15.4106 215.003 15.4202L223.246 15.3936Z"
          fill="#97C01E"
        />
        <path
          d="M239.476 22.0138C240.219 23.0384 240.573 24.2955 240.474 25.5587V29.5733C240.536 30.2274 240.467 30.8872 240.271 31.5142C240.076 32.1412 239.757 32.7226 239.335 33.2245C238.273 33.9523 237.016 34.3415 235.73 34.3415C234.444 34.3415 233.187 33.9523 232.125 33.2245C231.702 32.7226 231.384 32.1412 231.189 31.5142C230.993 30.8872 230.924 30.2274 230.986 29.5733V29.2011C230.976 29.0169 231.003 28.8326 231.065 28.659C231.127 28.4854 231.223 28.3262 231.348 28.1908C231.471 28.0661 231.618 27.9685 231.781 27.9044C231.944 27.8403 232.118 27.8111 232.292 27.8186C232.467 27.8094 232.642 27.8379 232.805 27.9021C232.968 27.9663 233.115 28.0647 233.237 28.1908C233.469 28.4741 233.589 28.8342 233.572 29.2011V29.4758C233.504 30.2514 233.686 31.0284 234.093 31.6914C234.3 31.9168 234.555 32.0915 234.84 32.2021C235.124 32.3127 235.43 32.3563 235.734 32.3295C236.035 32.3576 236.337 32.3145 236.618 32.2037C236.898 32.0928 237.149 31.9174 237.349 31.6914C237.745 31.0245 237.921 30.2491 237.853 29.4758V25.6562C237.93 24.8739 237.754 24.0873 237.349 23.414C237.144 23.1956 236.892 23.027 236.612 22.921C236.332 22.8151 236.032 22.7746 235.734 22.8026C235.309 22.797 234.89 22.9007 234.516 23.1039C234.116 23.3166 233.803 23.6651 233.634 24.0876C233.545 24.2963 233.398 24.4748 233.21 24.6016C232.967 24.7344 232.692 24.7958 232.416 24.7788C231.454 24.7788 230.977 24.4332 230.977 23.742V16.4749C230.976 16.3349 231.002 16.196 231.055 16.0666C231.108 15.9371 231.187 15.8198 231.286 15.7216C231.383 15.6197 231.499 15.5388 231.628 15.484C231.757 15.4291 231.896 15.4014 232.036 15.4026H239.468C239.751 15.3848 240.031 15.4804 240.244 15.6685C240.342 15.7632 240.417 15.8781 240.466 16.0051C240.515 16.1321 240.536 16.2682 240.527 16.4041C240.538 16.5454 240.518 16.6875 240.469 16.8206C240.421 16.9537 240.344 17.0746 240.244 17.1751C240.031 17.3631 239.751 17.4587 239.468 17.4409H233.44V22.0138C233.786 21.6075 234.234 21.3015 234.737 21.1276C235.307 20.9462 235.904 20.8623 236.502 20.8795C237.05 20.8458 237.598 20.9296 238.111 21.1251C238.624 21.3207 239.089 21.6237 239.476 22.0138V22.0138Z"
          fill="#97C01E"
        />
        <path
          d="M275.865 32.7547V77.571L301.883 46.2164H324.759V47.3242L293.26 82.9592L329.146 122.883V124.301H306.111L275.865 88.9766V124.301H256.748V13.5857C259.256 13.5845 261.739 14.0795 264.057 15.0423C266.374 16.0051 268.479 17.4169 270.253 19.197C272.026 20.9772 273.433 23.0907 274.393 25.417C275.353 27.7433 275.847 30.2366 275.847 32.7547"
          fill="#E3163B"
        />
        <path
          d="M401.366 85.3432C401.366 107.827 386.168 126.047 361.095 126.047C336.021 126.047 320.973 107.827 320.973 85.3432C320.973 63.0015 336.33 44.6301 360.936 44.6301C385.542 44.6301 401.366 63.0015 401.366 85.3432ZM340.089 85.3432C340.089 97.2186 347.15 108.305 361.095 108.305C375.039 108.305 382.091 97.2186 382.091 85.3432C382.091 73.6185 373.945 62.2128 361.095 62.2128C347.3 62.2128 340.089 73.6185 340.089 85.3432"
          fill="#E3163B"
        />
        <path
          d="M433.527 62.9926V96.7488C433.527 104.184 437.622 107.835 443.571 107.835C446.792 107.741 449.952 106.927 452.82 105.452L453.95 108.934C454.542 110.778 454.699 112.736 454.408 114.651C454.117 116.567 453.386 118.388 452.273 119.971C451.16 121.554 449.695 122.855 447.995 123.771C446.294 124.687 444.405 125.193 442.476 125.25H442.308C425.54 125.888 414.569 116.228 414.569 96.7488V62.9926H404.861C401.6 56.3258 396.697 50.6061 390.616 46.376H414.605V26.2499C415.223 26.185 415.845 26.1554 416.467 26.1612C421.043 26.1659 425.43 27.994 428.665 31.2441C431.9 34.4942 433.719 38.9006 433.721 43.4958V46.376H455.035C455.037 48.5632 454.609 50.7294 453.775 52.75C452.941 54.7706 451.717 56.6057 450.175 58.1498C448.632 59.694 446.801 60.9168 444.786 61.7479C442.771 62.579 440.612 63.002 438.434 62.9926H433.527Z"
          fill="#E3163B"
        />
        <path
          d="M355.79 156.631C355.79 161.948 347.803 161.948 347.803 156.631C347.803 151.314 355.79 151.314 355.79 156.631Z"
          fill="#E3163B"
        />
        <path
          d="M382.188 156.631C380.836 158.062 379.199 159.192 377.383 159.946C375.568 160.701 373.614 161.063 371.65 161.009C363.707 161.009 357.123 156.188 357.123 146.377C357.123 136.567 363.716 131.746 371.65 131.746C373.492 131.684 375.325 132.018 377.028 132.724C378.731 133.43 380.264 134.492 381.526 135.84L377.254 140.377C375.752 139 373.799 138.224 371.765 138.197C367.211 138.197 363.884 141.556 363.884 146.377C363.884 151.65 367.414 154.451 371.65 154.451C372.752 154.491 373.851 154.308 374.88 153.912C375.91 153.516 376.85 152.915 377.643 152.147L382.188 156.631Z"
          fill="#E3163B"
        />
        <path
          d="M409.583 146.377C409.583 154.353 404.208 160.778 395.329 160.778C386.451 160.778 381.129 154.336 381.129 146.377C381.129 138.419 386.566 131.976 395.25 131.976C403.935 131.976 409.556 138.472 409.556 146.377H409.583ZM387.872 146.377C387.872 150.578 390.369 154.504 395.303 154.504C400.237 154.504 402.734 150.578 402.734 146.377C402.734 142.177 399.848 138.197 395.303 138.197C390.422 138.197 387.872 142.23 387.872 146.377Z"
          fill="#E3163B"
        />
        <path
          d="M429.105 160.167V145.367C429.105 141.725 427.217 138.419 423.501 138.419C419.785 138.419 417.676 141.725 417.676 145.367V160.167H410.916V132.481H417.182L417.676 135.84C419.124 133.04 422.283 132.029 424.887 132.029C428.161 132.029 431.435 133.376 432.989 137.187C433.892 135.571 435.228 134.242 436.846 133.351C438.464 132.46 440.298 132.042 442.141 132.145C449.899 132.145 453.729 136.957 453.729 145.261V160.167H446.96V145.261C446.96 141.609 445.468 138.534 441.806 138.534C438.143 138.534 435.866 141.725 435.866 145.367V160.167H429.105Z"
          fill="#E3163B"
        />
        <g style="mix-blend-mode: multiply">
          <path
            d="M395.815 29.6175L396.547 28.1996L395.065 27.6324C375.251 20.321 359.603 24.9737 350.054 44.958C349.842 45.41 349.621 45.8443 349.418 46.3405L350.813 46.9432C371.235 55.3711 385.983 48.3434 395.824 29.6175"
            fill="#97C01E"
          />
        </g>
        <g style="mix-blend-mode: multiply">
          <path
            d="M370.538 1.51543C370.379 1.01029 370.22 0.514009 370.053 0L368.605 0.655796C349.453 9.51802 341.669 23.9546 348.959 44.8872C349.127 45.3568 349.295 45.8354 349.48 46.3228L350.892 45.7468C371.271 37.2125 376.742 21.8188 370.538 1.51543"
            fill="#97C01E"
          />
        </g>
      </g>
    </svg>
