<svg width="41" height="38" viewBox="0 0 41 38" fill="none" xmlns="http://www.w3.org/2000/svg">
<path d="M10.988 2C9.16748 2.98932 7.50335 4.2429 6.04967 5.71998C4.09815 7.61789 2.555 9.89516 1.51506 12.4118C0.475115 14.9285 -0.0396547 17.6315 0.0023819 20.3546C-0.0396547 23.0777 0.475115 25.7806 1.51506 28.2973C2.555 30.814 4.09815 33.0913 6.04967 34.9892C6.76659 35.7092 7.53036 36.381 8.33599 37C9.8468 34.0857 12.3809 32.5736 15.9383 32.4636H26.9841C28.7628 32.5521 29.7593 31.6955 29.9736 29.8938C30.1879 28.0922 29.0963 26.0733 26.6988 23.8373L15.3758 14.6319C12.6515 15.4201 11.4313 17.1628 11.7152 19.8599C11.9992 22.5571 15.2137 23.8024 21.3588 23.596C21.0507 28.2771 19.5787 30.6298 16.9428 30.6539H15.2713C13.3372 30.6914 11.7701 31.1727 10.5701 32.0977C10.3169 32.2183 10.2205 32.158 10.2888 31.9127C11.7353 30.3603 11.9322 27.442 10.8795 23.1576C9.82671 18.8733 10.7348 15.4817 13.6038 12.983C11.9081 11.2698 10.9237 8.95335 10.6504 6.03367C10.5072 4.68384 10.6217 3.31906 10.988 2.01206" fill="#99C01B"/>
<path d="M40.9976 20.5837C41.0367 17.8738 40.5262 15.1846 39.4976 12.6822C38.4689 10.1797 36.944 7.91712 35.017 6.03413C32.9466 3.89295 30.433 2.24214 27.6569 1.20027L30.325 3.53124C31.6716 4.59744 32.2487 6.1181 32.0564 8.09322C31.864 10.0684 30.7902 11.9342 28.8349 13.6908C28.6649 13.8627 28.5977 13.8227 28.6333 13.5588C29.4238 12.0848 29.1787 10.7814 27.898 9.64854L25.3722 7.51348C24.0915 6.55924 23.5184 5.17718 23.6528 3.36731C23.7109 2.29872 24.0463 1.26448 24.6251 0.368639C23.3086 0.1208 21.972 -0.00234522 20.6328 0.000801981C18.0213 -0.0225304 15.4297 0.463454 13 1.43217C13.4664 3.83111 15.5403 6.55524 19.2217 9.60456L26.732 15.7818C30.0945 18.4926 31.8983 21.3087 32.1433 24.2301C32.3814 27.1812 31.6581 30.13 30.0839 32.6264C31.8706 32.6983 33.0683 32.5304 33.6731 32.1306C33.9418 31.9227 34.0249 32.0266 33.926 32.4465C33.5676 34.8667 32.7771 36.7179 31.5544 38C32.8099 37.1702 33.977 36.2108 35.0368 35.1373C36.9607 33.2521 38.4822 30.9881 39.5074 28.485C40.5326 25.9819 41.0398 23.2928 40.9976 20.5837Z" fill="#2D3748"/>
</svg>
