<svg width="254" height="71" viewBox="0 0 254 71" fill="none"
  xmlns="http://www.w3.org/2000/svg">
  <path d="M0 36.13H5.65999V54.72H0V36.13Z" fill="#4B4D95"/>
  <path d="M28.28 41.71H8.69998L8.66998 23.76H14.38V36.13H34.96V40.07C34.96 40.28 34.8 40.55 34.56 41.12L23.45 69.5H17.47L28.28 41.71Z" fill="#4B4D95"/>
  <path d="M38.81 36.13H44.6L46.21 64H58.85C61.72 64 64.83 63.36 66.68 61.42C68.8 59.25 69.07 56.81 69.09 52.97L69.22 36.12H74.85L74.74 52.75C74.69 58.14 73.85 62.27 70.8 65.31C67.74 68.31 63.4 69.5 58.7 69.5H40.83L38.81 36.13ZM59.55 36.13L59.52 56.47H54.26L54.1 36.13H59.55Z" fill="#4B4D95"/>
  <path d="M108.8 41.66H92.52V36.13H110.82C114.84 36.13 117.9 38.84 117.9 43.99V63.98H122.35V69.51H92.28V63.98H112.21V45.68C112.2 43.4 110.83 41.66 108.8 41.66Z" fill="#4B4D95"/>
  <path d="M162.23 54.08L162.2 36.13H178.22C181.06 36.13 184.47 36.75 187.37 38.95C191.05 41.74 193.49 46.38 193.46 53.54C193.43 64.06 186.43 70.04 178.46 70.47C169.63 70.93 162.25 64.52 162.23 54.08ZM178.54 64.95C183.13 64.52 187.88 60.98 187.85 53.49C187.8 49.04 186.45 45.74 184.07 43.81C182 42.12 179.46 41.69 177.69 41.69H167.84V53.79C167.83 61.65 172.99 65.43 178.54 64.95Z" fill="#4B4D95"/>
  <path d="M208.43 41.66H195.26V36.13H210.39C215.62 36.13 219.81 39.54 219.81 46.54V69.5H214.2V48.23C214.2 44.02 212.16 41.66 208.43 41.66Z" fill="#4B4D95"/>
  <path d="M239.54 41.66H223.26V36.13H241.56C245.58 36.13 248.64 38.84 248.64 43.99V63.98H253.09V69.51H223.02V63.98H242.95V45.68C242.94 43.4 241.58 41.66 239.54 41.66Z" fill="#4B4D95"/>
  <path d="M126.227 46.97C126.097 50.03 127.137 53.14 129.067 55.06C133.737 59.7 144.287 56.94 141.077 48.47C139.857 54.13 128.787 53.2 130.927 43.76C131.747 40.16 132.147 34.23 128.747 31.92C131.297 37.14 126.447 41.76 126.227 46.97Z" fill="url(#paint0_linear_2_43)"/>
  <path d="M150.457 54.85C151.077 49.19 148.757 44.84 145.337 40.63C139.187 33.07 131.897 25.83 133.027 15.08C128.437 27.8 137.467 35.97 142.007 45.14C151.427 64.19 122.057 64.63 123.847 46.18C124.307 41.44 126.957 38.51 127.447 34.45C126.257 37.74 122.327 41.29 121.367 45.63C120.037 51.67 121.787 58.03 126.057 62.54C129.897 66.6 135.557 68.16 140.307 66.96C146.127 65.5 149.847 60.49 150.457 54.85Z" fill="#A19EC6"/>
  <path d="M157.627 42.27C156.667 40.03 154.677 37.26 152.017 34.49L151.247 33.69C142.477 24.56 132.537 14.22 142.507 1.66C142.657 1.47 142.647 1.19001 142.487 1.01001C142.387 0.90001 142.257 0.850006 142.117 0.850006C142.027 0.850006 141.927 0.879993 141.847 0.929993C136.967 4.07999 134.427 9.04002 134.497 15.27C134.557 20.56 136.767 26.02 141.247 31.96C142.317 33.38 143.447 34.76 144.537 36.09C147.157 39.28 149.627 42.3 151.167 45.69C153.227 50.22 153.267 55.22 151.277 59.77C149.227 64.45 145.217 68.07 140.277 69.72C140.037 69.8 139.897 70.05 139.947 70.3C139.997 70.54 140.207 70.7 140.437 70.7C140.447 70.7 140.467 70.7 140.477 70.7C145.347 70.31 149.927 68.17 153.367 64.7C159.237 58.75 160.907 49.95 157.627 42.27Z" fill="#4B4D95"/>
  <defs>
    <linearGradient id="paint0_linear_2_43" x1="133.943" y1="55.3359" x2="133.943" y2="39.8791" gradientUnits="userSpaceOnUse">
      <stop stop-color="#EC8C09"/>
      <stop offset="0.026" stop-color="#EE930A"/>
      <stop offset="0.113" stop-color="#F3A40D"/>
      <stop offset="0.2156" stop-color="#F7B20F"/>
      <stop offset="0.3421" stop-color="#FABB12"/>
      <stop offset="0.5188" stop-color="#FBC013"/>
      <stop offset="1" stop-color="#FCC213"/>
    </linearGradient>
  </defs>
</svg>
