<svg viewBox="0 0 478 141" fill="none"
  xmlns="http://www.w3.org/2000/svg">
  <path d="M173.26 98.36L181.91 41.38C182.5 37.55 184.62 35.49 187.93 35.49H195.56C198.87 35.49 200.31 37.55 199.71 41.38L196.49 62.89H213.87L217.09 41.38C217.68 37.55 219.8 35.49 223.11 35.49H230.74C234.05 35.49 235.49 37.55 234.89 41.38L226.24 98.36C225.65 102.19 223.53 104.25 220.22 104.25H212.59C209.28 104.25 207.84 102.19 208.44 98.36L211.24 79.7H193.86L191.06 98.36C190.47 102.19 188.35 104.25 185.04 104.25H177.41C174.1 104.25 172.66 102.19 173.26 98.36Z" fill="#0A416F" />
  <path d="M253.54 98.36L256.85 76.55L241.5 42.66C239.72 38.73 241.67 35.49 245.82 35.49H255.57C258.28 35.49 260.06 36.67 261.08 39.42L268.37 59.07L281.85 39.42C283.71 36.67 285.83 35.49 288.55 35.49H298.21C302.36 35.49 303.3 38.73 300.24 42.66L274.72 76.16L271.33 98.36C270.74 102.19 268.62 104.25 265.31 104.25H257.68C254.38 104.25 252.94 102.19 253.54 98.36Z" fill="#0A416F" />
  <path d="M343.06 68.1C349.84 69.67 351.96 78.22 351.11 83.82C349.25 96.2 339.24 104.25 325.76 104.25H302.7C299.39 104.25 297.95 102.19 298.55 98.36L307.2 41.38C307.79 37.55 309.91 35.49 313.22 35.49H333.91C346.71 35.49 354.77 42.96 352.9 55.33C352.21 59.75 349.58 65.15 343.06 68.1ZM327.63 75.66H319.83L317.96 87.65H327.29C331.7 87.65 333.82 84.7 334.24 81.85C334.75 78.91 332.88 75.66 327.63 75.66ZM329.58 51.6H323.48L321.7 63.49H326.87C332.21 63.49 335.09 60.84 335.6 57.79C336.1 54.05 333.98 51.6 329.58 51.6Z" fill="#0A416F" />
  <path d="M354.5 98.36L363.15 41.38C363.74 37.55 365.86 35.49 369.17 35.49H376.8C380.11 35.49 381.55 37.55 380.95 41.38L372.3 98.36C371.71 102.19 369.59 104.25 366.28 104.25H358.65C355.34 104.25 353.9 102.19 354.5 98.36Z" fill="#0A416F" />
  <path d="M377.47 98.36L377.81 96.2C378.23 93.25 379.25 91.19 381.2 88.93L412.48 53.17H392.13C388.82 53.17 387.38 51.11 387.98 47.28L388.83 41.39C389.42 37.56 391.54 35.5 394.85 35.5H434.19C437.5 35.5 438.94 37.56 438.34 41.39L438 43.74C437.58 46.69 436.56 48.75 434.61 51.01L403.16 86.57H428.68C431.99 86.57 433.43 88.63 432.83 92.46L431.98 98.35C431.39 102.18 429.27 104.24 425.96 104.24H381.62C378.32 104.25 376.88 102.19 377.47 98.36Z" fill="#0A416F" />
  <path d="M58.9 36.28C52.36 32.02 42.65 37.25 41.42 45.7L34.42 93.98C33.2 102.42 41.37 107.75 49.14 103.56L68.77 92.79L75.17 48.68L58.9 36.28Z" fill="#1D6EB5" />
  <path d="M93.05 36.4501C86.51 32.1901 76.8 37.4201 75.57 45.8701L75.16 48.6901L92.79 62.1301C99.33 66.3901 97.8 76.9401 90.03 81.1301L68.76 92.7901L68.56 94.1401C67.33 102.58 75.51 107.91 83.28 103.72L102.91 92.9501L109.31 48.8401L93.05 36.4501Z" fill="#2393AD" />
  <path d="M92.79 62.1201L75.16 48.6801L68.76 92.7901L90.04 81.1101C97.8 76.9301 99.34 66.3801 92.79 62.1201Z" fill="#247FAE" />
  <path d="M161.09 62.45L127.19 36.61C120.65 32.35 110.94 37.58 109.71 46.03L109.3 48.85L126.93 62.29C133.47 66.55 131.94 77.1 124.17 81.29L102.89 92.97L102.69 94.32C101.46 102.76 109.64 108.09 117.41 103.9L158.31 81.45C166.1 77.26 167.64 66.71 161.09 62.45Z" fill="#2CB7B2" />
  <path d="M126.94 62.2801L109.31 48.8401L102.91 92.9501L124.19 81.2701C131.95 77.1001 133.49 66.5401 126.94 62.2801Z" fill="#2DA2B5" />
</svg>
