<svg width="330" height="145" viewBox="0 0 330 145" fill="none" xmlns="http://www.w3.org/2000/svg">
<path d="M155.816 44.2701C154.164 48.2434 152.144 51.6624 146.728 49.0751L105.237 30.7792L113.223 14.8858L152.419 37.7095C155.357 39.2803 156.826 42.1448 155.816 44.2701Z" fill="#D8DF25"/>
<path d="M102.759 1.21016C85.2258 -5.90489 72.0074 20.2452 88.0715 30.4096L102.759 1.21016Z" fill="#44337A"/>
<path d="M90.2745 31.5185C94.1299 33.0893 98.3524 32.9969 102.024 31.4261L111.846 11.929C110.928 7.95565 108.542 4.53673 104.962 2.31905L90.2745 31.5185Z" fill="#44337A"/>
<path d="M123.137 20.0603L122.311 21.7236L130.756 26.159C130.756 26.159 131.032 23.4793 124.239 19.7831C123.872 19.5059 123.321 19.6907 123.137 20.0603Z" fill="#44337A"/>
<path d="M57.5039 136.396C140.027 117.453 226.222 112.186 310.122 124.107C313.243 124.476 312.784 129.558 309.48 129.096C309.48 129.096 293.783 127.341 293.691 127.341C236.32 121.15 178.122 123.922 121.117 132.515C100.464 135.749 79.81 139.538 59.6152 144.805C54.3829 146.376 51.9044 137.69 57.5039 136.396Z" fill="#D8DF25"/>
<path d="M322.056 129.373C321.413 131.868 314.988 129.835 315.814 127.433C316.456 124.938 322.882 126.971 322.056 129.373Z" fill="#D8DF25"/>
<path d="M12.9835 134.271C0.866588 133.994 1.23377 118.655 7.47579 111.355C12.8917 103.039 22.3465 97.4944 29.7819 91.7654C31.4342 86.8681 42.0823 64.414 37.1254 61.6419C29.9655 64.3216 21.8875 67.6482 14.4522 70.2355C9.49527 72.0835 -3.44776 77.1657 0.866587 67.0013C5.91529 61.4571 15.1865 59.9787 22.0711 56.2826C27.3034 54.0649 33.1783 51.6624 38.1352 49.6295C42.2659 47.5042 46.4885 47.1346 49.8849 50.5536C56.3105 56.9294 48.5079 65.8001 47.4064 73.0076C46.2131 76.9809 44.1936 83.0795 41.2562 91.3958C33.0865 109.969 34.188 131.037 12.9835 134.271ZM25.7429 104.979C20.327 110.154 12.3409 117.638 12.7081 125.77C19.7763 122.259 22.8973 111.817 25.7429 104.979Z" fill="#D8DF25"/>
<path d="M329.032 50.9231C329.032 34.2905 315.263 20.1528 299.015 18.5819C257.708 14.4238 225.947 51.9395 185.833 54.342C176.011 54.7116 166.281 51.9395 157.744 47.0422C157.468 46.8573 157.009 46.9497 156.826 47.3194C156.642 47.5966 156.734 48.0586 157.101 48.2434C165.73 53.418 175.827 56.4673 185.925 56.1901C225.947 57.4837 289.928 -6.73658 320.587 37.7094C331.602 56.4673 312.234 96.4779 291.488 101.653C287.449 102.299 284.42 97.402 287.174 94.1678C288.734 92.4122 291.305 92.135 293.6 91.5805C299.291 90.3793 304.89 86.2212 305.533 80.1225C304.798 60.8102 276.893 71.8986 275.791 88.9008C267.622 98.788 263.399 105.071 259.636 87.6996C262.022 82.7098 271.661 79.6605 274.598 75.1328C279.28 61.6419 265.051 72.0835 260.829 75.6872C263.491 67.8329 267.805 58.4078 269.366 50.1839C268.815 46.3953 262.94 42.0524 259.268 43.9928C257.341 45.1017 256.974 47.5042 256.423 49.537C253.118 62.9355 249.814 75.9644 246.05 89.2705C243.939 91.3957 240.818 93.7982 236.871 94.9071C245.591 67.4633 218.236 60.8102 211.719 80.4921C207.863 84.0035 207.863 87.5148 204.467 92.2274C203.733 94.0754 193.543 104.332 194.37 96.4779C195.747 90.2869 209.516 63.952 193.176 70.605C181.243 67.8329 169.585 76.8884 166.739 88.4388C158.937 96.0159 153.337 104.055 152.695 102.854C151.869 98.788 155.449 93.4286 156.917 89.4553C159.947 82.8022 163.16 76.1492 165.913 69.3113C166.464 67.5557 167.841 65.338 166.923 63.8596C156 55.9129 156.917 65.9848 149.207 69.8658C141.496 73.7467 132.776 69.8658 134.795 82.4326C133.969 87.4224 129.471 94.6299 123.78 98.326C119.006 101.837 119.465 96.5703 121.026 93.3362C122.77 87.1452 134.152 64.3216 118.823 70.5126C85.0424 64.0444 82.6557 126.509 113.04 103.501C115.059 107.844 119.282 109.414 123.412 107.474C132.776 115.236 141.496 86.5908 143.883 80.7694C145.81 80.2149 147.646 79.9377 149.574 79.5681C136.539 103.685 140.394 133.994 166.281 98.5108C167.198 109.969 179.407 111.632 187.301 103.501C192.534 112.279 199.877 108.121 205.752 99.25C207.496 113.48 226.131 114.959 233.841 102.392C236.687 101.653 240.909 99.8044 244.03 97.0323C242.837 102.484 238.431 117.453 248.345 115.236C252.017 111.54 252.292 104.609 254.128 99.8044C258.993 112.741 269.182 108.213 275.975 99.3424C277.444 106.457 284.695 110.431 291.58 109.322C314.162 104.794 329.399 72.5455 329.032 50.9231ZM290.754 83.6339C292.682 81.3238 295.16 79.1061 297.638 77.4428C298.281 82.1554 293.6 87.8844 288.918 85.9439C289.469 85.2047 290.111 84.4655 290.754 83.6339ZM113.958 84.4655C114.233 86.0364 104.503 101.283 102.3 96.2007C101.106 91.2109 105.237 83.3567 109.919 80.677C115.702 76.8884 114.967 79.4757 113.958 84.4655ZM188.311 84.4655C188.587 86.0364 178.856 101.283 176.653 96.2007C175.46 91.2109 179.591 83.3567 184.272 80.677C190.055 76.8884 189.321 79.4757 188.311 84.4655ZM216.859 88.0692C216.584 94.9995 220.623 99.712 224.019 100.174C218.512 105.903 210.342 99.8969 216.859 88.0692ZM226.773 94.9995C222.275 94.1678 219.154 81.2314 225.58 79.1061C231.73 77.6276 232.281 92.5046 226.773 94.9995Z" fill="#44337A"/>
<path d="M86.9699 104.517C82.472 97.402 78.3413 90.4718 75.6792 84.096C74.8531 81.9707 74.5777 80.8618 74.8531 80.5846C79.4428 76.9809 85.7766 73.3772 91.0089 69.5886C96.6084 65.4305 103.768 60.9951 106.798 54.8965C108.083 52.032 110.928 43.8081 104.778 46.303C95.2314 51.0156 86.2356 59.6091 77.6987 65.8925C78.2495 61.5496 85.8684 48.6131 80.4525 46.4878C77.4233 45.379 73.4761 45.2866 71.1813 47.8739C66.5916 56.1902 66.8669 68.1102 62.6444 76.7037C58.9726 81.7859 49.426 83.1719 47.5901 89.5478C48.4162 93.1515 55.668 93.1515 58.2383 91.3034C56.2188 99.5273 49.9767 108.952 50.5275 117.361C53.9239 117.731 58.6972 117.823 61.1757 115.051C64.7557 109.23 66.8669 101.56 68.8864 94.9996C73.3843 104.332 78.5248 116.807 87.5207 122.536C89.632 123.46 98.5361 122.813 97.2509 119.394C93.212 114.035 89.8156 109.137 86.9699 104.517Z" fill="#44337A"/>
</svg>
