<svg width="151" height="42" viewBox="0 0 151 42" fill="none" xmlns="http://www.w3.org/2000/svg">
  <path
    d="M23.5754 12.3313C22.3747 11.0832 20.9391 10.105 19.2684 9.39436C17.6014 8.68021 15.7429 8.32304 13.6934 8.32304C11.6419 8.32304 9.77261 8.68021 8.0818 9.39436C6.39118 10.105 4.94274 11.0832 3.73841 12.3313C2.53235 13.5757 1.6068 15.046 0.961948 16.7403C0.320585 18.4309 0 20.2584 0 22.2207V40.0158C0 40.5919 0.466939 41.0591 1.04326 41.0591H4.83045C5.40658 41.0591 5.87371 40.5919 5.87371 40.0158V22.1477C5.87371 21.0363 6.07233 19.9797 6.47132 18.9776C6.87399 17.9774 7.43327 17.0975 8.14742 16.3396C8.86157 15.5815 9.69614 14.9912 10.6544 14.5686C11.6109 14.1458 12.6238 13.9346 13.6934 13.9346C14.8048 13.9346 15.8395 14.1586 16.7978 14.605C17.7543 15.0478 18.5778 15.6471 19.2684 16.405C19.9626 17.1629 20.5091 18.043 20.9081 19.0433C21.3108 20.0453 21.5131 21.08 21.5131 22.1477V40.0158C21.5131 40.5919 21.98 41.0591 22.5563 41.0591H26.3435C26.9196 41.0591 27.3868 40.5919 27.3868 40.0158V22.0822C27.3868 20.1692 27.0515 18.3764 26.3811 16.7039C25.7143 15.0332 24.7797 13.5757 23.5754 12.3313Z"
    fill="#293D50" />
  <path
    d="M64.7001 26.6975L60.7257 26.2056C60.2057 26.1413 59.7154 26.4741 59.5885 26.9826C58.8241 30.0481 57.6778 32.3033 56.1517 33.7498C54.4791 35.3293 52.1088 36.1181 49.0389 36.1181C47.4795 36.1181 46.062 35.8522 44.7903 35.3165C43.5221 34.7828 42.4181 34.0249 41.4817 33.0428C40.5488 32.0626 39.8238 30.893 39.31 29.5374C38.7999 28.1783 38.5447 26.6735 38.5447 25.0264C38.5447 23.3759 38.7999 21.8709 39.31 20.5154C39.8238 19.1562 40.5488 17.9865 41.4817 17.0101C42.4181 16.0299 43.5221 15.272 44.7903 14.7363C46.062 14.2024 47.4795 13.9347 49.0389 13.9347C50.7734 13.9347 52.1398 14.168 53.1418 14.6343C53.9893 15.0273 54.8742 15.6518 55.7979 16.5071C56.0608 16.7504 56.0166 17.1787 55.7036 17.3529L41.3655 25.3367C40.8736 25.6107 40.6878 26.2253 40.9455 26.7259L42.3954 29.5421C42.6649 30.0659 43.3144 30.2626 43.8296 29.9767L63.6553 18.9661C64.159 18.6863 64.3371 18.052 64.0628 17.5453C62.6095 14.861 60.7516 12.7004 58.4909 11.0634C55.9731 9.2378 52.823 8.32329 49.0389 8.32329C46.8089 8.32329 44.6901 8.73679 42.6841 9.56207C40.6818 10.3839 38.9238 11.5297 37.408 13.0018C35.8957 14.4703 34.6842 16.2285 33.7714 18.2781C32.8567 20.3241 32.4014 22.5742 32.4014 25.0264C32.4014 27.4314 32.8459 29.6596 33.735 31.7091C34.6277 33.7552 35.8209 35.5134 37.3131 36.9854C38.8036 38.4538 40.5635 39.6126 42.5894 40.4615C44.6153 41.3069 46.7652 41.7297 49.0389 41.7297C51.2634 41.7297 53.3459 41.3726 55.2845 40.6584C57.2229 39.9443 58.9373 38.944 60.4295 37.6558C61.9198 36.3642 63.1223 34.7955 64.0369 32.9481C64.8008 31.3992 65.3233 29.7175 65.6049 27.9032C65.6957 27.3181 65.2876 26.7703 64.7001 26.6975Z"
    fill="#293D50" />
  <path
    d="M91.0913 8.98628H86.4576C84.4936 8.98628 82.555 9.36533 80.6419 10.1232C78.7271 10.8811 77.0127 11.9505 75.4969 13.3297C73.9811 14.7107 72.7531 16.3905 71.8167 18.3727C70.8838 20.355 70.4175 22.574 70.4175 25.0264C70.4175 27.4313 70.873 29.6249 71.7875 31.6071C72.7003 33.5892 73.9027 35.2837 75.3949 36.6865C76.8853 38.0857 78.6015 39.1642 80.5399 39.9223C82.4785 40.6802 84.4498 41.0591 86.4576 41.0591H91.0913C91.6674 41.0591 92.1346 40.592 92.1346 40.0158V36.4909C92.1346 35.9146 91.6674 35.4477 91.0913 35.4477H87.3903C85.9656 35.4477 84.5956 35.2036 83.2802 34.7117C81.9684 34.2215 80.8096 33.531 79.8039 32.642C78.8019 31.7492 78.013 30.6579 77.4355 29.3697C76.8561 28.0779 76.5682 26.6297 76.5682 25.0264C76.5682 23.3756 76.8669 21.9055 77.4645 20.6173C78.0658 19.3255 78.8803 18.2343 79.9059 17.3451C80.9298 16.4525 82.0886 15.771 83.3822 15.3047C84.6738 14.8346 86.0313 14.5977 87.4559 14.5977H91.0913C91.6674 14.5977 92.1346 14.1307 92.1346 13.5544V10.0295C92.1346 9.45341 91.6674 8.98628 91.0913 8.98628Z"
    fill="#293D50" />
  <path
    d="M113.81 14.5979C114.386 14.5979 114.853 14.1308 114.853 13.5547V10.0298C114.853 9.45346 114.386 8.98652 113.81 8.98652H103.361V2.01341C103.361 1.4371 102.894 0.969963 102.317 0.969963H98.5227C97.9466 0.969963 97.4795 1.4371 97.4795 2.01341V30.9003C97.4795 33.9757 98.2902 36.4389 99.9137 38.29C101.541 40.1375 103.823 41.0593 106.764 41.0593H113.81C114.386 41.0593 114.853 40.5922 114.853 40.0161V36.491C114.853 35.9149 114.386 35.4477 113.81 35.4477H107.566C106.185 35.4477 105.139 35.1599 104.425 34.5805C103.714 34.003 103.361 33.0211 103.361 31.6363V14.5979H113.81Z"
    fill="#293D50" />
  <path
    d="M144.113 29.472C143.621 30.8275 142.92 31.9972 142.007 32.9773C141.092 33.9538 139.99 34.7228 138.698 35.2803C137.41 35.8396 135.965 36.1183 134.362 36.1183C132.846 36.1183 131.451 35.8632 130.179 35.3531C128.911 34.8393 127.807 34.0905 126.871 33.1086C125.938 32.1283 125.204 30.9588 124.67 29.6033C124.134 28.2441 123.868 26.7172 123.868 25.0266C123.868 23.3759 124.123 21.8711 124.633 20.5156C125.147 19.1564 125.872 17.9867 126.805 17.0102C127.741 16.0299 128.846 15.272 130.114 14.7365C131.385 14.2026 132.781 13.9349 134.297 13.9349C135.9 13.9349 137.345 14.2154 138.633 14.7729C139.925 15.3268 141.038 16.0955 141.97 17.0759C142.907 18.0523 143.621 19.222 144.113 20.5812C144.603 21.9421 144.849 23.4233 144.849 25.0266C144.849 26.6299 144.603 28.1128 144.113 29.472ZM149.695 18.3803C148.824 16.3507 147.633 14.5888 146.117 13.0966C144.605 11.6064 142.834 10.4367 140.804 9.5913C138.778 8.74609 136.63 8.32329 134.362 8.32329C132.132 8.32329 130.013 8.73699 128.007 9.56226C126.005 10.3839 124.247 11.5299 122.731 13.002C121.219 14.4703 120.007 16.2285 119.095 18.2783C118.18 20.3243 117.725 22.5742 117.725 25.0266C117.725 27.4751 118.169 29.7252 119.058 31.775C119.951 33.8208 121.144 35.579 122.636 37.0511C124.127 38.5196 125.887 39.6655 127.913 40.491C129.939 41.3162 132.088 41.7297 134.362 41.7297C136.674 41.7297 138.833 41.3071 140.841 40.4617C142.847 39.6128 144.605 38.454 146.117 36.9856C147.633 35.5134 148.824 33.7554 149.695 31.7093C150.564 29.6596 151 27.4316 151 25.0266C151 22.6216 150.564 20.4062 149.695 18.3803Z"
    fill="#293D50" />
</svg>
