<svg width="100%" height="100%" viewBox="0 0 24 24" fill="none" xmlns="http://www.w3.org/2000/svg" class=""><path d="M18.497 20.594H5.51257L8.64301 18.982L8.64825 16.321H15.3623L15.3676 18.982L18.497 20.594Z" fill="#F59E0B"></path> <path d="M8.63562 16.321H8.65031L8.64297 18.982L5.51253 20.594H5.50309V21.789H3V17.472H5.50309V20.581L5.51253 20.576L8.6073 18.983H8.63457L8.63562 16.321Z" fill="#F59E0B"></path> <path d="M15.3641 16.321V18.982L15.3571 16.321H15.3641Z" fill="#F59E0B"></path> <path d="M21 17.472H18.4969V21.788H21V17.472Z" fill="#F59E0B"></path> <path d="M18.3763 4.82201L18.2944 4.90501L17.5811 5.61701C16.5991 6.59801 15.5343 7.66101 15.4357 7.75401L15.3476 7.82801V9.45701L18.6459 6.31301L20.5573 6.28801V4.82201H18.3763Z" fill="#F59E0B"></path> <path d="M13.0071 3.574L17.5779 5.618V4.312L12.8571 2V3.313C12.7559 3.18974 12.6266 3.09005 12.479 3.0215C12.3314 2.95294 12.1694 2.91731 12.0052 2.91731C11.841 2.91731 11.679 2.95294 11.5314 3.0215C11.3838 3.09005 11.2545 3.18974 11.1534 3.313V2L6.43254 4.312V5.612C6.18496 5.363 5.94472 5.122 5.72441 4.904L5.6321 4.822H3.44897V6.288L5.36248 6.313L8.66077 9.457V7.828L8.57055 7.754C8.47404 7.661 7.40713 6.594 6.42624 5.617L10.9887 3.577C10.9262 3.73337 10.9045 3.90186 10.9253 4.068C10.9462 4.23414 11.0091 4.39297 11.1085 4.53085C11.208 4.66872 11.3411 4.78154 11.4963 4.85959C11.6516 4.93765 11.8244 4.97863 12 4.979C12.0797 4.97887 12.1592 4.97049 12.2371 4.954H12.2517C12.4879 4.90066 12.6984 4.77292 12.8489 4.59144C12.9995 4.40997 13.0815 4.18538 13.0816 3.954C13.0821 3.8548 13.0672 3.75607 13.0375 3.661C13.0291 3.63148 13.0189 3.60243 13.0071 3.574ZM12.279 4.374C12.2315 4.40146 12.1799 4.4217 12.1259 4.434L12.0828 4.443C12.0555 4.44768 12.0278 4.45002 12 4.45C11.902 4.44981 11.8061 4.42349 11.723 4.374V4.374C11.6599 4.33413 11.6067 4.28171 11.5668 4.22036C11.527 4.159 11.5016 4.09016 11.4923 4.01856C11.483 3.94695 11.4901 3.87428 11.5131 3.80554C11.5361 3.73679 11.5744 3.6736 11.6254 3.6203C11.6764 3.567 11.7389 3.52486 11.8086 3.49676C11.8783 3.46867 11.9536 3.45528 12.0293 3.45754C12.1049 3.45979 12.1792 3.47762 12.2469 3.5098C12.3146 3.54199 12.3743 3.58777 12.4217 3.644C12.45 3.678 12.4723 3.71616 12.4878 3.757L12.4941 3.77L12.4993 3.782V3.789L12.5067 3.808C12.52 3.8529 12.5267 3.89934 12.5266 3.946C12.5272 4.03157 12.5048 4.11586 12.4614 4.1908C12.4181 4.26574 12.3553 4.32882 12.279 4.374V4.374Z" fill="#F59E0B"></path> <path d="M15.357 16.321L15.362 18.982V16.321H15.357Z" fill="#fff"></path> <path d="M20.5604 6.28801V17.472H18.4969V10.459C18.4969 8.89301 16.8183 9.48701 16.8183 11.029V16.652L18.4969 17.472V20.594L15.3643 18.983V16.321H15.357L15.3465 9.73001V9.45701L18.6448 6.31301L20.5562 6.28801H20.5604Z" fill="#fff"></path> <path d="M8.63554 16.321V18.982H8.60722L5.51245 20.575V20.594L8.64289 18.982L8.64918 16.321H8.63554Z" fill="#fff"></path> <path d="M5.36248 6.31301L3.44897 6.28801V17.472H5.5125V20.572L8.60727 18.979H8.63559V16.321H8.65028L8.65867 10.202V9.45701L5.36248 6.31301ZM7.19102 16.652L5.5125 17.472V10.459C5.5125 8.89301 7.19102 9.48701 7.19102 11.029V16.652Z" fill="#fff"></path> <path d="M8.26632 7.57801C8.30198 7.61201 8.3387 7.64501 8.37122 7.67801C9.62487 8.72001 11.7618 8.07801 11.7618 4.97801C11.7624 4.96969 11.7624 4.96134 11.7618 4.95301C11.5211 4.90223 11.3058 4.77464 11.1514 4.59134C10.9971 4.40805 10.913 4.18004 10.9131 3.94501C10.9127 3.81845 10.9373 3.69293 10.9855 3.57501L6.68221 5.50001L6.36749 5.63901C6.36749 5.63901 7.20675 6.53901 7.95579 7.27301C8.06175 7.38101 8.16665 7.48301 8.26632 7.57801Z" fill="#fff"></path> <path d="M15.6256 7.675C15.6623 7.645 15.699 7.61201 15.7305 7.57501C15.8354 7.48001 15.9403 7.37501 16.0452 7.27501C16.7943 6.53701 17.6335 5.64101 17.6335 5.64101L17.3188 5.502L13.0071 3.57401C13.0183 3.59984 13.0281 3.62621 13.0365 3.65301C13.0666 3.74802 13.0818 3.84675 13.0816 3.94601C13.0815 4.17752 12.9994 4.40222 12.8486 4.58371C12.6978 4.7652 12.4871 4.89286 12.2507 4.94601V4.94601H12.2361C12.235 4.95431 12.235 4.9627 12.2361 4.97101C12.234 8.07301 14.372 8.71701 15.6256 7.675Z" fill="#fff"></path> <path d="M18.4969 20.593H5.48315V21.788H18.4969V20.593Z" fill="#fff"></path></svg>
